<?xml version="1.0" encoding="utf-8"?>
<!-- Generator: Adobe Illustrator 19.0.0, SVG Export Plug-In . SVG Version: 6.00 Build 0)  -->
<svg version="1.1" xmlns="http://www.w3.org/2000/svg" xmlns:xlink="http://www.w3.org/1999/xlink" x="0px" y="0px"
	 viewBox="0 0 1186 621" style="enable-background:new 0 0 1186 621;" xml:space="preserve">
<style type="text/css">
	.st0{enable-background:new    ;}
	.st1{fill:#F7786B;}
	.st2{fill:#2E2E3A;}
	.st3{fill:#FFFFFF;}
</style>
<g id="Rectangle_1_1_" class="st0">
	<g id="Rectangle_1">
		<g>
			<rect y="391" class="st1" width="1186" height="230"/>
		</g>
	</g>
</g>
<g id="promaja_x0D_prevention">
	<g>
		<path class="st2" d="M142.9,79c5.4-9.6,14.1-14.4,26-14.4c11.9,0,20.9,3.8,27,11.4s9.1,19.2,9.1,34.7c0,15.5-3.6,27.5-10.9,36
			c-7.3,8.5-17.6,12.7-31.1,12.7c-6.8,0-13.2-1.5-19-4.6v30.8c3.8,2.4,8.5,4.1,14.1,5.1l-0.8,7.4h-50.7l0.8-7.8
			c4.2-0.9,7.5-2.5,9.9-4.8V90.7c0-4.6-0.9-7.7-2.6-9.4c-1.7-1.7-4.8-2.7-9.2-2.9L106,71c18-3.4,28.5-5.6,31.5-6.5l3.4,1.7L142.9,79
			z M161.5,75.9c-5.4,0-9.7,2.7-12.8,8c-3.1,5.3-4.7,13-4.7,23.2v38.4c3.3,2.5,7.5,3.8,12.5,3.8c13.7,0,20.5-13.3,20.5-39.9
			C177.1,87.1,171.9,75.9,161.5,75.9z"/>
		<path class="st2" d="M231,90.7c0-4.6-0.9-7.7-2.7-9.4c-1.8-1.7-4.9-2.7-9.3-2.9l0.6-7.4c19-3.5,29.8-5.7,32.5-6.5l3.4,1.7
			l1.5,12.5c6.5-9.4,14.6-14.1,24.5-14.1c4.9,0,9.2,1.7,12.8,5c3.6,3.4,5.4,7.4,5.4,12.2s-1.3,8.4-3.9,11c-2.6,2.6-5.7,3.9-9.4,3.9
			c-3.7,0-6.7-1.6-8.9-4.8c1.8-2.2,2.7-4.2,2.7-6.3c0-2-0.9-3.7-2.6-4.9c-1.7-1.3-3.8-1.9-6.2-1.9c-2.4,0-4.9,1.1-7.5,3.3
			c-2.6,2.2-4.7,5.1-6.2,8.6v54.5c2.9,2.3,6.7,4,11.4,5.1l-0.8,7.4h-48.1l0.6-7.8c4.1-0.8,7.4-2.3,10.1-4.8V90.7z"/>
		<path class="st2" d="M318.6,147.2c-7.7-8.1-11.6-19.9-11.6-35.3c0-15.5,3.9-27.2,11.6-35.2c7.7-8,19.1-12.1,34.2-12.1
			c15.1,0,26.4,4,34.1,12.1c7.7,8,11.5,19.8,11.5,35.2c0,15.5-3.8,27.2-11.5,35.3c-7.7,8.1-19,12.2-34.1,12.2
			C337.7,159.3,326.3,155.3,318.6,147.2z M352.8,75.2c-6.3,0-10.9,2.8-13.7,8.5c-2.8,5.7-4.2,15.1-4.2,28.2
			c0,13.1,1.4,22.5,4.2,28.2c2.8,5.7,7.3,8.5,13.7,8.5c6.3,0,10.9-2.9,13.6-8.6c2.7-5.8,4.1-15.2,4.1-28.2c0-13-1.4-22.4-4.1-28.1
			C363.7,78,359.1,75.2,352.8,75.2z"/>
		<path class="st2" d="M478.8,95.5c0-12.2-3.9-18.2-11.6-18.2c-7,0-12.5,3.5-16.5,10.5v57.8c2.9,2.3,6.7,4,11.4,5.1l-0.8,7.4h-48.1
			l0.6-7.8c4.1-0.8,7.4-2.3,10.1-4.8V90.7c0-4.6-0.9-7.7-2.7-9.4c-1.8-1.7-4.9-2.7-9.3-2.9l0.6-7.4c19-3.5,29.8-5.7,32.5-6.5
			l3.4,1.7l1.5,11c7.1-8.5,16.1-12.7,27.2-12.7c12.7,0,21.3,5.2,25.8,15.6c6.8-10.4,16.6-15.6,29.3-15.6c8.6,0,15.5,2.6,20.7,7.8
			c5.2,5.2,7.8,12.4,7.8,21.5v51.7c3.2,2.4,7.2,4.1,12.2,5.1l-0.8,7.4H524l0.6-7.4c3.5-0.8,6.6-2.5,9.3-5.1v-50
			c0-12.2-3.9-18.2-11.6-18.2c-3.4,0-6.7,1-9.8,3.1c-3.1,2.1-5.5,4.8-7.3,8.3c0.3,2.3,0.4,4,0.4,5.1v51.7c2.8,2.3,6.6,4,11.4,5.1
			l-0.8,7.4h-47.3l0.6-7.4c3.5-0.8,6.6-2.5,9.3-5.1V95.5z"/>
		<path class="st2" d="M608.6,159.3c-8.7,0-15.5-2-20.1-6.1c-4.7-4.1-7-9.9-7-17.7c0-16.8,12.5-26.2,37.4-27.9l16.7-1.1v-11
			c0-8.9-1-15-3.1-18.4c-2.1-3.4-5.3-5.1-9.7-5.1s-7.7,0.9-10.1,2.8c-2.3,1.8-3.5,4.2-3.5,7.2c0,3,1.4,5.5,4.2,7.7
			c-0.6,3.2-2.2,5.7-4.6,7.6c-2.4,1.9-5.5,2.8-9.3,2.8c-3.8,0-7.1-1.3-9.9-4c-2.8-2.7-4.2-6-4.2-9.9c0-6.7,3.2-12,9.6-15.9
			c6.4-3.9,15.2-5.8,26.5-5.8c27.2,0,40.9,10,40.9,30v51.7c2.2,2.4,6,4.1,11.4,5.1L673,158h-34.2l-1.9-10.8
			C628.8,155.3,619.3,159.3,608.6,159.3z M611,121.3c-3,2.7-4.6,6.4-4.6,11.2c0,9.6,3.8,14.4,11.4,14.4c5.8,0,11.7-3.5,17.7-10.5
			v-20.7l-9.5,0.8C619.1,117.1,614.1,118.7,611,121.3z"/>
		<path class="st2" d="M720.7,164.3c0,10.8-1.6,18.9-4.9,24.3c-2.2,3.5-5.5,6.2-10,8.1c-4.5,1.8-9.7,2.8-15.5,2.8
			c-5.8,0-11.1-1.4-15.7-4.2c-4.6-2.8-6.9-6.7-6.9-11.8c0-3.5,1.1-6.4,3.3-8.5c2.2-2.2,5.2-3.2,8.8-3.2c3.7,0,6.5,1.6,8.5,4.8
			c-1.9,1.9-2.8,4.1-2.8,6.5c0,4.7,1.5,7,4.6,7c1.8,0,3.2-1.1,4.4-3.3c1.1-2.2,1.7-5.1,1.7-8.7s-0.4-8.5-1.1-14.5
			c-0.8-6.1-1.1-11.8-1.1-17.1V90.7c0-4.6-0.9-7.7-2.6-9.4s-4.8-2.7-9.2-2.9l0.6-7.4c1.6-0.4,5.1-1,10.4-1.9
			c12.2-1.9,20.3-3.4,24.3-4.6l3.2,1.7V164.3z M707.6,26.9c10.1,0,15.1,4.4,15.1,13.3c0,8.9-5,13.3-15.1,13.3s-15.1-4.4-15.1-13.3
			C692.5,31.3,697.6,26.9,707.6,26.9z"/>
		<path class="st2" d="M767.6,159.3c-8.7,0-15.5-2-20.1-6.1c-4.7-4.1-7-9.9-7-17.7c0-16.8,12.5-26.2,37.4-27.9l16.7-1.1v-11
			c0-8.9-1-15-3.1-18.4c-2.1-3.4-5.3-5.1-9.7-5.1s-7.7,0.9-10.1,2.8c-2.3,1.8-3.5,4.2-3.5,7.2c0,3,1.4,5.5,4.2,7.7
			c-0.6,3.2-2.2,5.7-4.6,7.6c-2.4,1.9-5.5,2.8-9.3,2.8c-3.8,0-7.1-1.3-9.9-4c-2.8-2.7-4.2-6-4.2-9.9c0-6.7,3.2-12,9.6-15.9
			c6.4-3.9,15.2-5.8,26.5-5.8c27.2,0,40.9,10,40.9,30v51.7c2.2,2.4,6,4.1,11.4,5.1L832,158h-34.2l-1.9-10.8
			C787.8,155.3,778.3,159.3,767.6,159.3z M770,121.3c-3,2.7-4.6,6.4-4.6,11.2c0,9.6,3.8,14.4,11.4,14.4c5.8,0,11.7-3.5,17.7-10.5
			v-20.7l-9.5,0.8C778.1,117.1,773.1,118.7,770,121.3z"/>
		<path class="st2" d="M142.9,254c5.4-9.6,14.1-14.4,26-14.4c11.9,0,20.9,3.8,27,11.4s9.1,19.2,9.1,34.7c0,15.5-3.6,27.5-10.9,36
			c-7.3,8.5-17.6,12.7-31.1,12.7c-6.8,0-13.2-1.5-19-4.6v30.8c3.8,2.4,8.5,4.1,14.1,5.1l-0.8,7.4h-50.7l0.8-7.8
			c4.2-0.9,7.5-2.5,9.9-4.8v-94.8c0-4.6-0.9-7.7-2.6-9.4c-1.7-1.7-4.8-2.7-9.2-2.9l0.6-7.4c18-3.4,28.5-5.6,31.5-6.5l3.4,1.7
			L142.9,254z M161.5,250.9c-5.4,0-9.7,2.7-12.8,8c-3.1,5.3-4.7,13-4.7,23.2v38.4c3.3,2.5,7.5,3.8,12.5,3.8
			c13.7,0,20.5-13.3,20.5-39.9C177.1,262.1,171.9,250.9,161.5,250.9z"/>
		<path class="st2" d="M231,265.7c0-4.6-0.9-7.7-2.7-9.4c-1.8-1.7-4.9-2.7-9.3-2.9l0.6-7.4c19-3.5,29.8-5.7,32.5-6.5l3.4,1.7
			l1.5,12.5c6.5-9.4,14.6-14.1,24.5-14.1c4.9,0,9.2,1.7,12.8,5c3.6,3.4,5.4,7.4,5.4,12.2s-1.3,8.4-3.9,11c-2.6,2.6-5.7,3.9-9.4,3.9
			c-3.7,0-6.7-1.6-8.9-4.8c1.8-2.2,2.7-4.2,2.7-6.3c0-2-0.9-3.7-2.6-4.9c-1.7-1.3-3.8-1.9-6.2-1.9c-2.4,0-4.9,1.1-7.5,3.3
			c-2.6,2.2-4.7,5.1-6.2,8.6v54.5c2.9,2.3,6.7,4,11.4,5.1l-0.8,7.4h-48.1l0.6-7.8c4.1-0.8,7.4-2.3,10.1-4.8V265.7z"/>
		<path class="st2" d="M334,286.8v3c0,10.6,1.5,18.5,4.6,23.7c3,5.1,8.7,7.7,17.1,7.7c10.6,0,19.4-3.5,26.2-10.4l7.6,7.4
			c-5.2,5.2-10.6,9.2-16.2,12c-5.6,2.8-13,4.2-22.1,4.2c-14.7,0-25.7-4.1-33.2-12.4c-7.4-8.3-11.1-19.8-11.1-34.6
			c0-14.8,3.9-26.4,11.8-35c7.9-8.6,19-12.8,33.5-12.8c14.5,0,24.7,3.3,30.7,9.9c6,6.6,9.3,16.4,10.1,29.5l-5.3,8H334z M351.9,248.8
			c-11.5,0-17.5,10.1-17.9,30.4l31.9-1.5c0-10.1-1-17.5-3-22C360.9,251.1,357.2,248.8,351.9,248.8z"/>
		<path class="st2" d="M454.7,333h-19.6l-27.4-77.3c-1.5-4.3-5.4-7-11.8-8l0.4-6.6h49.8l-1,6.6c-4.3,0.3-7.9,1.5-10.8,3.6l18.8,53
			l20.9-52.4c-2.9-1.9-7-3.3-12.4-4.2l0.8-6.6h35.3l-0.8,6.6c-4.4,0.3-7.7,1.8-9.9,4.6L454.7,333z"/>
		<path class="st2" d="M527.2,286.8v3c0,10.6,1.5,18.5,4.6,23.7c3,5.1,8.7,7.7,17.1,7.7c10.6,0,19.4-3.5,26.2-10.4l7.6,7.4
			c-5.2,5.2-10.6,9.2-16.2,12c-5.6,2.8-13,4.2-22.1,4.2c-14.7,0-25.7-4.1-33.2-12.4c-7.4-8.3-11.1-19.8-11.1-34.6
			c0-14.8,3.9-26.4,11.8-35c7.9-8.6,19-12.8,33.5-12.8c14.5,0,24.7,3.3,30.7,9.9c6,6.6,9.3,16.4,10.1,29.5l-5.3,8H527.2z
			 M545.1,248.8c-11.5,0-17.5,10.1-17.9,30.4l31.9-1.5c0-10.1-1-17.5-3-22C554.1,251.1,550.4,248.8,545.1,248.8z"/>
		<path class="st2" d="M665.4,270.5c0-12.2-3.9-18.2-11.8-18.2c-3.3,0-6.5,1-9.6,2.9c-3.1,1.9-5.5,4.4-7.3,7.6v57.8
			c2.9,2.3,6.7,4,11.4,5.1l-0.8,7.4h-48.1l0.6-7.8c4.1-0.8,7.4-2.3,10.1-4.8v-54.7c0-4.6-0.9-7.7-2.7-9.4c-1.8-1.7-4.9-2.7-9.3-2.9
			l0.6-7.4c19-3.5,29.8-5.7,32.5-6.5l3.4,1.7l1.5,11c7.2-8.5,16.5-12.7,27.9-12.7c8.6,0,15.5,2.6,20.6,7.8
			c5.1,5.2,7.7,12.4,7.7,21.5v51.7c3.2,2.4,7.2,4.1,12.2,5.1l-0.8,7.4h-48.1l0.6-7.4c3.8-0.8,6.9-2.5,9.3-5.1V270.5z"/>
		<path class="st2" d="M745.9,333.8c-6.8,0-12.4-1.8-16.7-5.5c-4.3-3.7-6.5-9.2-6.5-16.7v-57h-13.5v-8.7
			c13.2-4.9,22.6-12.9,28.3-23.8h12.4v20.1h24.3v12.3h-24.5V310c0,6.7,3,10.1,9.1,10.1c4.6,0,9.1-1.6,13.7-4.8l3.8,6.7
			C767.6,329.8,757.4,333.8,745.9,333.8z"/>
		<path class="st2" d="M794.6,265.7c0-4.6-0.9-7.7-2.6-9.4s-4.8-2.7-9.2-2.9l0.6-7.4c1.6-0.4,5.1-1,10.3-1.9
			c12.3-1.9,20.5-3.4,24.5-4.6l3.2,1.7v79.2c3.2,2.4,7.2,4.1,12.2,5.1l-0.8,7.4h-48.8l0.8-7.8c4.2-0.9,7.5-2.5,9.9-4.8V265.7z
			 M808.3,201.9c10.1,0,15.1,4.4,15.1,13.3c0,8.9-5,13.3-15.1,13.3s-15.1-4.4-15.1-13.3C793.2,206.3,798.3,201.9,808.3,201.9z"/>
		<path class="st2" d="M856.5,322.2c-7.7-8.1-11.6-19.9-11.6-35.3c0-15.5,3.9-27.2,11.6-35.2c7.7-8,19.1-12.1,34.2-12.1
			c15.1,0,26.4,4,34.1,12.1c7.7,8,11.5,19.8,11.5,35.2c0,15.5-3.8,27.2-11.5,35.3c-7.7,8.1-19,12.2-34.1,12.2
			C875.6,334.3,864.2,330.3,856.5,322.2z M890.7,250.2c-6.3,0-10.9,2.8-13.7,8.5c-2.8,5.7-4.2,15.1-4.2,28.2
			c0,13.1,1.4,22.5,4.2,28.2c2.8,5.7,7.3,8.6,13.7,8.6c6.3,0,10.9-2.9,13.6-8.6c2.7-5.8,4.1-15.2,4.1-28.2c0-13-1.4-22.4-4.1-28.1
			C901.6,253,897,250.2,890.7,250.2z"/>
		<path class="st2" d="M1017.2,270.5c0-12.2-3.9-18.2-11.8-18.2c-3.3,0-6.5,1-9.6,2.9c-3.1,1.9-5.5,4.4-7.3,7.6v57.8
			c2.9,2.3,6.7,4,11.4,5.1l-0.8,7.4h-48.1l0.6-7.8c4.1-0.8,7.4-2.3,10.1-4.8v-54.7c0-4.6-0.9-7.7-2.7-9.4c-1.8-1.7-4.9-2.7-9.3-2.9
			l0.6-7.4c19-3.5,29.8-5.7,32.5-6.5l3.4,1.7l1.5,11c7.2-8.5,16.5-12.7,27.9-12.7c8.6,0,15.5,2.6,20.6,7.8
			c5.1,5.2,7.7,12.4,7.7,21.5v51.7c3.2,2.4,7.2,4.1,12.2,5.1l-0.8,7.4h-48.1l0.6-7.4c3.8-0.8,6.9-2.5,9.3-5.1V270.5z"/>
	</g>
</g>
<g id="organization">
	<g>
		<path class="st3" d="M100.3,545.2c-5.7-5.1-8.6-13.1-8.6-24c0-9.1,1.9-19.1,5.6-30.2c3.7-11.1,9.7-20.6,18-28.7
			c8.3-8.1,18.7-12.1,31.2-12.1c17.1,0,25.6,10.7,25.6,32v0.2c0.4,0.1,1.1,0.2,2.2,0.2c4.4,0,9.5-1.2,15.2-3.5
			c5.7-2.3,10.9-5.2,15.6-8.5l1.8,5.4c-3.9,4.1-8.9,7.6-15.1,10.5c-6.2,2.9-13,4.9-20.3,6.1c-1.1,12.1-3.8,22.7-8.2,31.8
			c-4.4,9.1-10.1,16.1-17,21c-6.9,4.9-14.5,7.4-22.6,7.4C113.8,552.8,106,550.3,100.3,545.2z M141.3,529.3c3.2-3.7,6-8.7,8.4-15
			c2.4-6.3,4.1-13.4,5.2-21.1c-3.6-0.8-5.4-3.6-5.4-8.4c0-5.5,2.1-9.1,6.2-10.8c-0.3-4.4-0.9-7.4-2-9.1c-1.1-1.7-2.9-2.5-5.6-2.5
			c-4.4,0-8.7,3.2-12.8,9.6c-4.1,6.4-7.5,14.1-10,23c-2.5,8.9-3.8,16.8-3.8,23.6c0,6.4,0.7,10.7,2.2,12.9c1.5,2.2,4.1,3.3,8,3.3
			C134.9,534.8,138.1,533,141.3,529.3z"/>
		<path class="st3" d="M195.9,452h28.8l-2.6,12.4c4.5-4,8.6-7.1,12.3-9.2c3.7-2.1,7.6-3.2,11.9-3.2c4.3,0,7.6,1.5,10.1,4.4
			c2.5,2.9,3.7,6.5,3.7,10.6c0,3.9-1.3,7.3-3.8,10.2c-2.5,2.9-6.1,4.4-10.6,4.4c-2.9,0-4.9-0.7-5.9-2.1s-1.8-3.4-2.3-6.1
			c-0.4-1.7-0.8-3-1.2-3.8c-0.4-0.8-1.1-1.2-2.2-1.2c-2.8,0-5.2,0.6-7.1,1.7c-1.9,1.1-4.4,3.1-7.5,5.9l-16,76h-28.8L195.9,452z"/>
		<path class="st3" d="M276.9,597c-4.3-3.3-6.4-8.1-6.4-14.4c0-7.6,3.1-13.7,9.2-18.3c6.1-4.6,13.9-8.4,23.4-11.5l2.4-10.6
			c-6.8,7.3-14.8,11-24,11c-7.6,0-13.9-2.6-19-7.8c-5.1-5.2-7.6-13.3-7.6-24.4c0-9.9,2-20.2,5.9-31.1c3.9-10.9,9.8-20.1,17.6-27.6
			c7.8-7.5,17.1-11.3,27.9-11.3c5.5,0,9.5,0.9,12.2,2.8c2.7,1.9,4,4.3,4,7.4v1.2l2.2-10.4h28.8l-19.8,92.8
			c6.4-2.1,11.5-5.3,15.4-9.6c3.9-4.3,7.1-10.6,9.8-19h8.4c-3.6,11.9-8.5,20.6-14.6,26.1c-6.1,5.5-13.1,9.3-20.8,11.3l-3,14.4
			c-2.7,12.9-7.3,21.8-13.8,26.7c-6.5,4.9-13.9,7.3-22.2,7.3C286.5,602,281.2,600.3,276.9,597z M294.9,581.8c2.1-3.1,3.8-7.5,5-13.2
			l1.2-5.8c-13.1,4.8-19.6,10.5-19.6,17c0,1.7,0.6,3.3,1.8,4.6c1.2,1.3,2.9,2,5,2C290.6,586.4,292.8,584.9,294.9,581.8z
			 M303.9,529.6c3.2-2.8,5.4-6.6,6.6-11.4l10.2-47.4c0-1.6-0.7-3.2-2-4.9c-1.3-1.7-3.4-2.5-6.2-2.5c-5.3,0-10.1,3.1-14.4,9.3
			c-4.3,6.2-7.6,13.7-10,22.4c-2.4,8.7-3.6,16.4-3.6,23.1c0,6.7,1,10.9,2.9,12.8c1.9,1.9,4.3,2.8,7.1,2.8
			C297.6,533.8,300.7,532.4,303.9,529.6z"/>
		<path class="st3" d="M363.9,545.4c-5.1-5.2-7.6-13.3-7.6-24.4c0-9.9,2-20.2,5.9-31.1c3.9-10.9,9.8-20.1,17.6-27.6
			c7.8-7.5,17.1-11.3,27.9-11.3c5.5,0,9.5,0.9,12.2,2.8c2.7,1.9,4,4.3,4,7.4v1.4l2.2-10.6h28.8l-14.4,68c-0.5,2-0.8,4.1-0.8,6.4
			c0,5.7,2.7,8.6,8.2,8.6c3.7,0,7-1.7,9.7-5.2c2.7-3.5,4.9-8,6.5-13.6h8.4c-4.9,14.4-11,24.2-18.3,29.3c-7.3,5.1-14.6,7.7-21.9,7.7
			c-5.6,0-10.1-1.6-13.5-4.7c-3.4-3.1-5.4-7.7-6.1-13.7c-3.9,5.5-8.2,9.9-12.9,13.3c-4.7,3.4-10.4,5.1-16.9,5.1
			C375.3,553.2,369,550.6,363.9,545.4z M405.8,529.1c3.3-3.1,5.5-7.4,6.7-12.9l9.6-45.2c0-1.7-0.7-3.4-2-5.1
			c-1.3-1.7-3.4-2.5-6.2-2.5c-5.3,0-10.1,3.1-14.4,9.3c-4.3,6.2-7.6,13.7-10,22.4c-2.4,8.7-3.6,16.4-3.6,23.1c0,6.7,1,10.9,2.9,12.8
			c1.9,1.9,4.3,2.8,7.1,2.8C399.2,533.8,402.5,532.2,405.8,529.1z"/>
		<path class="st3" d="M518.4,546.7c-3.8-4.3-5.7-9.7-5.7-16.1c0-2.8,0.3-6,1-9.5c0.7-3.5,1.4-7,2.1-10.3c0.7-3.3,1.2-5.5,1.5-6.4
			c1.1-4.7,2.1-9.3,3-13.8c0.9-4.5,1.4-8.2,1.4-11c0-6.8-2.4-10.2-7.2-10.2c-3.5,0-6.5,1.7-9.2,5.1c-2.7,3.4-4.8,7.8-6.4,13.3
			L485.3,552h-28.8l21.2-100h28.8l-2.2,10.4c6.7-7.5,14.5-11.2,23.4-11.2c6.8,0,12.2,1.9,16.2,5.6c4,3.7,6,9.4,6,17
			c0,3.9-0.5,8.2-1.4,12.9c-0.9,4.7-2.3,10.5-4,17.3c-1.1,4.1-2,8.2-2.9,12.1c-0.9,3.9-1.3,7-1.3,9.3c0,2.7,0.6,4.7,1.8,6.2
			c1.2,1.5,3.3,2.2,6.2,2.2c4,0,7.2-1.4,9.6-4.3c2.4-2.9,4.8-7.3,7.2-13.3h8.4c-4.9,14.7-10.6,24.5-17.1,29.5
			c-6.5,5-13.2,7.5-20.1,7.5C528.2,553.2,522.2,551,518.4,546.7z"/>
		<path class="st3" d="M569.4,547.2c-3.9-4-5.9-10-5.9-18c0-3.3,0.5-7.7,1.6-13l13.6-64.2h28.8l-14.4,68c-0.5,2-0.8,4.1-0.8,6.4
			c0,2.7,0.6,4.6,1.9,5.7c1.3,1.1,3.4,1.7,6.3,1.7c2.4,0,4.5-0.4,6.4-1.2c-0.5,6.7-2.9,11.8-7.1,15.3c-4.2,3.5-9.2,5.3-14.9,5.3
			C578.5,553.2,573.3,551.2,569.4,547.2z M587.3,436.6c-3.1-3.1-4.6-6.8-4.6-11.2c0-4.4,1.5-8.2,4.6-11.3c3.1-3.1,6.8-4.7,11.2-4.7
			s8.2,1.6,11.3,4.7c3.1,3.1,4.7,6.9,4.7,11.3c0,4.4-1.6,8.1-4.7,11.2c-3.1,3.1-6.9,4.6-11.3,4.6S590.4,439.7,587.3,436.6z
			 M657.9,462.8h-11.2c-3.7,0-6.5,0.2-8.3,0.6c-1.8,0.4-2.7,1.3-2.7,2.6c0,0.3,0.4,0.6,1.1,0.9c0.7,0.3,1.1,1.5,1.1,3.5
			c0,3.5-1.1,6.1-3.2,7.9c-2.1,1.8-4.7,2.7-7.6,2.7c-2.5,0-4.7-0.8-6.5-2.3c-1.8-1.5-2.7-3.7-2.7-6.5s1-5.8,2.9-9
			c1.9-3.2,4.7-5.9,8.2-8c3.5-2.1,7.6-3.2,12.1-3.2h51.4l-49,84.6c0.8,0,2.3,0.1,4.4,0.4c4.5,0.5,8.1,0.8,10.8,0.8
			c5.7,0,8.9-1.3,9.4-4c-1.2-0.1-2.1-0.6-2.8-1.3c-0.7-0.7-1-1.7-1-2.9c0-2.1,1-4.1,3-5.9s4.7-2.7,8.2-2.7c2.9,0,5.1,0.9,6.6,2.6
			c1.5,1.7,2.2,4.1,2.2,7c0,3.2-1,6.5-3,9.8c-2,3.3-4.9,6.1-8.6,8.3c-3.7,2.2-8,3.3-12.8,3.3h-53L657.9,462.8z"/>
		<path class="st3" d="M697.5,545.4c-5.1-5.2-7.6-13.3-7.6-24.4c0-9.9,2-20.2,5.9-31.1c3.9-10.9,9.8-20.1,17.6-27.6
			c7.8-7.5,17.1-11.3,27.9-11.3c5.5,0,9.5,0.9,12.2,2.8c2.7,1.9,4,4.3,4,7.4v1.4l2.2-10.6h28.8l-14.4,68c-0.5,2-0.8,4.1-0.8,6.4
			c0,5.7,2.7,8.6,8.2,8.6c3.7,0,7-1.7,9.7-5.2c2.7-3.5,4.9-8,6.5-13.6h8.4c-4.9,14.4-11,24.2-18.3,29.3c-7.3,5.1-14.6,7.7-21.9,7.7
			c-5.6,0-10.1-1.6-13.5-4.7c-3.4-3.1-5.4-7.7-6.1-13.7c-3.9,5.5-8.2,9.9-12.9,13.3c-4.7,3.4-10.4,5.1-16.9,5.1
			C708.9,553.2,702.6,550.6,697.5,545.4z M739.4,529.1c3.3-3.1,5.5-7.4,6.7-12.9l9.6-45.2c0-1.7-0.7-3.4-2-5.1
			c-1.3-1.7-3.4-2.5-6.2-2.5c-5.3,0-10.1,3.1-14.4,9.3c-4.3,6.2-7.6,13.7-10,22.4c-2.4,8.7-3.6,16.4-3.6,23.1c0,6.7,1,10.9,2.9,12.8
			c1.9,1.9,4.3,2.8,7.1,2.8C732.8,533.8,736.1,532.2,739.4,529.1z"/>
		<path class="st3" d="M802,547.2c-3.9-4-5.9-10-5.9-18c0-3.3,0.5-7.7,1.6-13l12-56.2h-6.6l1.6-8h6.6l6-27.6l29.6-4l-6.8,31.6h12
			l-1.6,8h-12l-12.8,60c-0.5,2-0.8,4.1-0.8,6.4c0,2.7,0.6,4.6,1.9,5.7c1.3,1.1,3.4,1.7,6.3,1.7c3.9,0,7.5-1.6,10.8-4.9
			c3.3-3.3,5.7-7.5,7.2-12.7h8.4c-4.9,14.4-11.3,24.2-19,29.3c-7.7,5.1-15.4,7.7-23,7.7C811.1,553.2,805.9,551.2,802,547.2z"/>
		<path class="st3" d="M855.4,547.2c-3.9-4-5.9-10-5.9-18c0-3.3,0.5-7.7,1.6-13l13.6-64.2h28.8l-14.4,68c-0.5,2-0.8,4.1-0.8,6.4
			c0,2.7,0.6,4.6,1.9,5.7c1.3,1.1,3.4,1.7,6.3,1.7c3.9,0,7.5-1.6,10.8-4.9c3.3-3.3,5.7-7.5,7.2-12.7h8.4
			c-4.9,14.4-11.3,24.2-19,29.3c-7.7,5.1-15.4,7.7-23,7.7C864.5,553.2,859.3,551.2,855.4,547.2z M873.3,436.6
			c-3.1-3.1-4.6-6.8-4.6-11.2c0-4.4,1.5-8.2,4.6-11.3c3.1-3.1,6.8-4.7,11.2-4.7c4.4,0,8.2,1.6,11.3,4.7c3.1,3.1,4.7,6.9,4.7,11.3
			c0,4.4-1.6,8.1-4.7,11.2c-3.1,3.1-6.9,4.6-11.3,4.6C880.1,441.2,876.4,439.7,873.3,436.6z"/>
		<path class="st3" d="M910.3,545.2c-5.7-5.1-8.6-13.1-8.6-24c0-9.1,1.9-19.1,5.6-30.2c3.7-11.1,9.7-20.6,18-28.7
			c8.3-8.1,18.7-12.1,31.2-12.1c17.1,0,25.6,10.7,25.6,32v0.2c0.4,0.1,1.1,0.2,2.2,0.2c4.4,0,9.5-1.2,15.2-3.5
			c5.7-2.3,10.9-5.2,15.6-8.5l1.8,5.4c-3.9,4.1-8.9,7.6-15.1,10.5c-6.2,2.9-13,4.9-20.3,6.1c-1.1,12.1-3.8,22.7-8.2,31.8
			c-4.4,9.1-10.1,16.1-17,21c-6.9,4.9-14.5,7.4-22.6,7.4C923.8,552.8,916,550.3,910.3,545.2z M951.3,529.3c3.2-3.7,6-8.7,8.4-15
			c2.4-6.3,4.1-13.4,5.2-21.1c-3.6-0.8-5.4-3.6-5.4-8.4c0-5.5,2.1-9.1,6.2-10.8c-0.3-4.4-0.9-7.4-2-9.1c-1.1-1.7-2.9-2.5-5.6-2.5
			c-4.4,0-8.7,3.2-12.8,9.6c-4.1,6.4-7.5,14.1-10,23c-2.5,8.9-3.8,16.8-3.8,23.6c0,6.4,0.7,10.7,2.2,12.9c1.5,2.2,4.1,3.3,8,3.3
			C944.9,534.8,948.1,533,951.3,529.3z"/>
		<path class="st3" d="M1045.7,546.8c-3.2-4.3-4.8-9.7-4.8-16.2c0-2.8,0.3-6,1-9.5c0.7-3.5,1.4-7,2.1-10.3c0.7-3.3,1.2-5.5,1.5-6.4
			c1.1-4.7,2.1-9.3,3-13.8c0.9-4.5,1.4-8.2,1.4-11c0-6.8-2.4-10.2-7.2-10.2c-3.5,0-6.5,1.7-9.2,5.1c-2.7,3.4-4.8,7.8-6.4,13.3
			l-13.6,64.2h-28.8l21.2-100h28.8l-2.2,10.4c6.7-7.5,14.5-11.2,23.4-11.2c6.8,0,12.2,1.9,16.2,5.6c4,3.7,6,9.4,6,17
			c0,3.9-0.5,8.2-1.4,12.9c-0.9,4.7-2.3,10.5-4,17.3c-1.1,4.1-2,8.2-2.9,12.1c-0.9,3.9-1.3,7-1.3,9.3c0,2.7,0.6,4.7,1.8,6.2
			c1.2,1.5,3.3,2.2,6.2,2.2c3.2,0,5.4-0.4,6.6-1.2c-0.8,6.8-3.2,11.9-7.3,15.4c-4.1,3.5-9,5.2-14.7,5.2
			C1054,553.2,1048.9,551.1,1045.7,546.8z"/>
	</g>
</g>
</svg>
